<mxfile host="app.diagrams.net" modified="2022-10-12T01:04:57.186Z" agent="5.0 (Macintosh; Intel Mac OS X 10_15_7) AppleWebKit/537.36 (KHTML, like Gecko) Chrome/105.0.0.0 Safari/537.36" etag="8hbrZzWSGagRYs5DpzDL" version="20.4.0" type="github">
  <diagram id="3228e29e-7158-1315-38df-8450db1d8a1d" name="Page-1">
    <mxGraphModel dx="625" dy="963" grid="0" gridSize="10" guides="1" tooltips="1" connect="1" arrows="1" fold="1" page="1" pageScale="1" pageWidth="700" pageHeight="220" background="#EFF1F3" math="0" shadow="0">
      <root>
        <mxCell id="0" />
        <mxCell id="1" parent="0" />
        <mxCell id="D7VS0WEbVSilx6UqDnpJ-3" value="" style="shape=flexArrow;endArrow=classic;html=1;rounded=0;fontSize=19;fontColor=#FFFFFF;strokeColor=none;fillColor=#FDD276;" parent="1" edge="1">
          <mxGeometry width="50" height="50" relative="1" as="geometry">
            <mxPoint x="209" y="314" as="sourcePoint" />
            <mxPoint x="276" y="314" as="targetPoint" />
          </mxGeometry>
        </mxCell>
        <mxCell id="D7VS0WEbVSilx6UqDnpJ-6" value="&lt;font color=&quot;#808080&quot;&gt;密文&lt;/font&gt;" style="text;html=1;strokeColor=none;fillColor=none;align=center;verticalAlign=middle;whiteSpace=wrap;rounded=0;fontSize=19;fontColor=#FFFFFF;" parent="1" vertex="1">
          <mxGeometry x="302" y="375" width="91" height="30" as="geometry" />
        </mxCell>
        <mxCell id="mOebbfBG10x5W4ijN7ml-2" value="" style="shape=image;verticalLabelPosition=bottom;verticalAlign=top;imageAspect=0;aspect=fixed;image=data:image/svg+xml,PHN2ZyB4bWxuczp4bGluaz0iaHR0cDovL3d3dy53My5vcmcvMTk5OS94bGluayIgeG1sbnM9Imh0dHA6Ly93d3cudzMub3JnLzIwMDAvc3ZnIiBoZWlnaHQ9IjIwMCIgd2lkdGg9IjIwMCIgdmVyc2lvbj0iMS4xIiB2aWV3Qm94PSIwIDAgMTAyNCAxMDI0IiBjbGFzcz0iaWNvbiI+PHBhdGggZmlsbD0iIzRBOTE5QiIgZD0iTTQ0Ni42ODA0MDcgNTEzLjcwNDcyNmgxMzYuMDc4NzM5djUxMC4yOTUyNzRoLTEzNi4wNzg3Mzl6Ii8+PHBhdGggZmlsbD0iIzRBOTE5QiIgZD0iTTUzMi40MTAwMTMgNjY2Ljc5MzMwOGgxMTUuNjY2OTI4djEzNi4wNzg3NEg1MzIuNDEwMDEzek01MzIuNDEwMDEzIDg0My42OTU2N2gxNDkuNjg2NjEzdjEzNi4wNzg3NEg1MzIuNDEwMDEzek01MTEuOTk4MjAyIDU4NS4xNDYwNjVBMjkwLjUyODEwOSAyOTAuNTI4MTA5IDAgMCAxIDIxOS40Mjg5MTIgMjkyLjU3Njc3NSAyOTAuNTI4MTA5IDI5MC41MjgxMDkgMCAwIDEgNTExLjk5ODIwMiAwLjAwNzQ4NGEyOTAuNTI4MTA5IDI5MC41MjgxMDkgMCAwIDEgMjkyLjU2OTI5IDI5Mi41NjkyOTEgMjkwLjUyODEwOSAyOTAuNTI4MTA5IDAgMCAxLTI5Mi41NjkyOSAyOTIuNTY5Mjl6IG0wLTQ0OS4wNTk4NDFBMTUzLjc2ODk3NiAxNTMuNzY4OTc2IDAgMCAwIDM1NS41MDc2NTEgMjkyLjU3Njc3NWExNTMuNzY4OTc2IDE1My43Njg5NzYgMCAwIDAgMTU2LjQ5MDU1MSAxNTYuNDkwNTUgMTUzLjc2ODk3NiAxNTMuNzY4OTc2IDAgMCAwIDE1Ni40OTA1NS0xNTYuNDkwNTVBMTUzLjc2ODk3NiAxNTMuNzY4OTc2IDAgMCAwIDUxMS45OTgyMDIgMTM2LjA4NjIyNHoiLz48L3N2Zz4=" parent="1" vertex="1">
          <mxGeometry x="217" y="255" width="47" height="47" as="geometry" />
        </mxCell>
        <mxCell id="mOebbfBG10x5W4ijN7ml-9" value="" style="shape=flexArrow;endArrow=classic;html=1;rounded=0;fontSize=19;fontColor=#FFFFFF;strokeColor=none;fillColor=#FDD276;" parent="1" edge="1">
          <mxGeometry width="50" height="50" relative="1" as="geometry">
            <mxPoint x="422" y="314" as="sourcePoint" />
            <mxPoint x="489" y="314" as="targetPoint" />
          </mxGeometry>
        </mxCell>
        <mxCell id="mOebbfBG10x5W4ijN7ml-13" value="" style="shape=image;verticalLabelPosition=bottom;labelBackgroundColor=default;verticalAlign=top;aspect=fixed;imageAspect=0;image=data:image/svg+xml,PHN2ZyB4bWxuczp4bGluaz0iaHR0cDovL3d3dy53My5vcmcvMTk5OS94bGluayIgeG1sbnM9Imh0dHA6Ly93d3cudzMub3JnLzIwMDAvc3ZnIiBoZWlnaHQ9IjIwMCIgd2lkdGg9IjIwMCIgdmVyc2lvbj0iMS4xIiB2aWV3Qm94PSIwIDAgMTAyNCAxMDI0IiBjbGFzcz0iaWNvbiI+PHBhdGggZmlsbD0iIzRBOTE5QiIgZD0iTTcyMC42NCAyNC4zMkgyNDUuNzZDMTYwIDI0LjMyIDkwLjg4IDkzLjQ0IDkwLjg4IDE3OS4ydjY0My44NGMwIDQwLjk2IDE2LjY0IDc5LjM2IDQ2LjA4IDEwOC44IDI2Ljg4IDI2Ljg4IDYxLjQ0IDQyLjI0IDk4LjU2IDQ0LjhoMjEzLjc2YzE5LjIgMCAzNC41Ni0xNS4zNiAzNC41Ni0zNC41NnMtMTUuMzYtMzQuNTYtMzQuNTYtMzQuNTZIMjQ1Ljc2Yy00Ni4wOCAwLTg0LjQ4LTM4LjQtODQuNDgtODQuNDhWMTc5LjJjMC00Ni4wOCAzOC40LTg0LjQ4IDg0LjQ4LTg0LjQ4aDQ3NC44OGM0Ni4wOCAwIDg0LjQ4IDM4LjQgODQuNDggODQuNDh2MjgyLjg4YzAgMTkuMiAxNS4zNiAzNC41NiAzNC41NiAzNC41NnMzNC41Ni0xNS4zNiAzNC41Ni0zNC41NlYxNzkuMmMwLTg1Ljc2LTY5LjEyLTE1NC44OC0xNTMuNi0xNTQuODh6Ii8+PHBhdGggZmlsbD0iIzRBOTE5QiIgZD0iTTY3OC40IDI0OS42SDI4Mi44OGMtMTkuMiAwLTM0LjU2IDE1LjM2LTM0LjU2IDM0LjU2IDAgMTkuMiAxNS4zNiAzNC41NiAzNC41NiAzNC41Nkg2NzguNGMxOS4yIDAgMzQuNTYtMTUuMzYgMzQuNTYtMzQuNTYgMS4yOC0xOS4yLTE0LjA4LTM0LjU2LTM0LjU2LTM0LjU2ek01MjguNjQgNDYzLjM2SDI4Mi44OGMtMTkuMiAwLTM0LjU2IDE1LjM2LTM0LjU2IDM0LjU2IDAgMTkuMiAxNS4zNiAzNC41NiAzNC41NiAzNC41NmgyNDQuNDhjOC45NiAwIDE3LjkyLTMuODQgMjQuMzItMTAuMjRzMTAuMjQtMTUuMzYgMTAuMjQtMjUuNmMxLjI4LTE3LjkyLTE0LjA4LTMzLjI4LTMzLjI4LTMzLjI4ek0zODcuODQgNjc3LjEyaC0xMDMuNjhjLTEyLjggMC0yNC4zMiA2LjQtMzAuNzIgMTcuOTItNi40IDEwLjI0LTYuNCAyNC4zMiAwIDM0LjU2IDYuNCAxMC4yNCAxNy45MiAxNy45MiAzMC43MiAxNy45MmgxMDMuNjhjMTIuOCAwIDI0LjMyLTYuNCAzMC43Mi0xNy45MiA2LjQtMTAuMjQgNi40LTI0LjMyIDAtMzQuNTYtNy42OC0xMC4yNC0xOS4yLTE3LjkyLTMwLjcyLTE3LjkyeiIvPjxwYXRoIGZpbGw9IiM0QTkxOUIiIGQ9Ik04NzYuOCA5OTkuNjhINjE2Ljk2Yy0zMiAwLTU2LjMyLTI4LjE2LTU2LjMyLTYwLjE2Vjc1OS4wNGMwLTM0LjU2IDI1LjYtNjAuMTYgNTYuMzItNjAuMTZoMTUuMzZjMC02LjQtMi41Ni0xNS4zNi0yLjU2LTIxLjc2di0yNS42YzAtNjIuNzIgNTEuMi0xMTYuNDggMTE2LjQ4LTExNi40OCA2Mi43MiAwIDExNi40OCA1MS4yIDExNi40OCAxMTYuNDh2MjEuNzZjMCA4Ljk2IDAgMTUuMzYtMi41NiAyMS43NmgxNS4zNmMzMiAwIDU2LjMyIDI4LjE2IDU2LjMyIDYwLjE2djE4MC40OGMxLjI4IDM4LjQtMjQuMzIgNjQtNTUuMDQgNjR6TTcyNC40OCA4NTMuNzZ2NTMuNzZjMCAxMi44IDguOTYgMjEuNzYgMjEuNzYgMjEuNzZzMjEuNzYtOC45NiAyMS43Ni0yMS43NnYtNTMuNzZjMTIuOC04Ljk2IDIxLjc2LTIxLjc2IDIxLjc2LTQwLjk2IDIuNTYtMjEuNzYtMTkuMi00NC44LTQ0LjgtNDQuOHMtNDcuMzYgMjEuNzYtNDcuMzYgNDcuMzZjMS4yOCAxNi42NCAxMS41MiAzMiAyNi44OCAzOC40eiBtOTIuMTYtMjAyLjI0YzAtMzguNC0zMi02OS4xMi02OS4xMi02OS4xMi0zOC40IDAtNjkuMTIgMzItNjkuMTIgNjkuMTJ2NDcuMzZoMTM5LjUydi00Ny4zNnogbTAgMCIvPjwvc3ZnPg==;" parent="1" vertex="1">
          <mxGeometry x="297" y="263" width="101" height="101" as="geometry" />
        </mxCell>
        <mxCell id="mOebbfBG10x5W4ijN7ml-14" value="" style="shape=image;verticalLabelPosition=bottom;verticalAlign=top;imageAspect=0;aspect=fixed;image=data:image/svg+xml,PHN2ZyB4bWxuczp4bGluaz0iaHR0cDovL3d3dy53My5vcmcvMTk5OS94bGluayIgeG1sbnM9Imh0dHA6Ly93d3cudzMub3JnLzIwMDAvc3ZnIiBoZWlnaHQ9IjIwMCIgd2lkdGg9IjIwMCIgdmVyc2lvbj0iMS4xIiB2aWV3Qm94PSIwIDAgMTAyNCAxMDI0IiBjbGFzcz0iaWNvbiI+PHBhdGggZmlsbD0iIzRBOTE5QiIgZD0iTTI4OCAzMjBhMzIgMzIgMCAxIDEgMC02NGg0NDhhMzIgMzIgMCAwIDEgMCA2NEgyODh6IG0wIDIyNGEzMiAzMiAwIDAgMSAwLTY0aDQ0OGEzMiAzMiAwIDAgMSAwIDY0SDI4OHogbTAgMjI0YTMyIDMyIDAgMCAxIDAtNjRoMTI4YTMyIDMyIDAgMCAxIDAgNjRIMjg4eiIvPjxwYXRoIGZpbGw9IiM0QTkxOUIiIGQ9Ik04MDcuOTY4IDgwMi4yNGEzMiAzMiAwIDAgMSA0MS45ODQgNDguMzJsLTE1My44NTYgMTMzLjZhMzIgMzIgMCAwIDEtMjAuOTkyIDcuODRIMTk1LjA0QzE0MC4xNiA5OTIgOTYgOTQ2LjYyNCA5NiA4OTEuMDcyVjEzMi45MjhDOTYgNzcuMzc2IDE0MC4xNiAzMiAxOTUuMDQgMzJoNjMzLjkyQzg4My44NCAzMiA5MjggNzcuMzc2IDkyOCAxMzIuOTI4djU2NC4zMmEzMiAzMiAwIDEgMS02NCAwdi01NjQuMzJDODY0IDExMi4zMiA4NDguMDk2IDk2IDgyOC45NiA5NkgxOTUuMDRDMTc1LjkwNCA5NiAxNjAgMTEyLjMyIDE2MCAxMzIuOTI4djc1OC4xNDRDMTYwIDkxMS42OCAxNzUuOTA0IDkyOCAxOTUuMDQgOTI4aDQ2OC4wOTZsMTQ0LjgzMi0xMjUuNzZ6Ii8+PHBhdGggZmlsbD0iIzRBOTE5QiIgZD0iTTcwNCA5NTkuMTM2YTMyIDMyIDAgMSAxLTY0IDB2LTE4Ni4yNEM2NDAgNzE3LjQwOCA2ODQuMTYgNjcyIDczOS4wNCA2NzJoMTU3LjYzMmEzMiAzMiAwIDAgMSAwIDY0SDczOS4wNGMtMTkuMTM2IDAtMzUuMDQgMTYuMzItMzUuMDQgMzYuOTI4djE4Ni4yNHoiLz48L3N2Zz4=" parent="1" vertex="1">
          <mxGeometry x="88" y="263" width="100" height="100" as="geometry" />
        </mxCell>
        <mxCell id="mOebbfBG10x5W4ijN7ml-15" value="" style="shape=image;verticalLabelPosition=bottom;verticalAlign=top;imageAspect=0;aspect=fixed;image=data:image/svg+xml,PHN2ZyB4bWxuczp4bGluaz0iaHR0cDovL3d3dy53My5vcmcvMTk5OS94bGluayIgeG1sbnM9Imh0dHA6Ly93d3cudzMub3JnLzIwMDAvc3ZnIiBoZWlnaHQ9IjIwMCIgd2lkdGg9IjIwMCIgdmVyc2lvbj0iMS4xIiB2aWV3Qm94PSIwIDAgMTAyNCAxMDI0IiBjbGFzcz0iaWNvbiI+PHBhdGggZmlsbD0iIzRBOTE5QiIgZD0iTTI4OCAzMjBhMzIgMzIgMCAxIDEgMC02NGg0NDhhMzIgMzIgMCAwIDEgMCA2NEgyODh6IG0wIDIyNGEzMiAzMiAwIDAgMSAwLTY0aDQ0OGEzMiAzMiAwIDAgMSAwIDY0SDI4OHogbTAgMjI0YTMyIDMyIDAgMCAxIDAtNjRoMTI4YTMyIDMyIDAgMCAxIDAgNjRIMjg4eiIvPjxwYXRoIGZpbGw9IiM0QTkxOUIiIGQ9Ik04MDcuOTY4IDgwMi4yNGEzMiAzMiAwIDAgMSA0MS45ODQgNDguMzJsLTE1My44NTYgMTMzLjZhMzIgMzIgMCAwIDEtMjAuOTkyIDcuODRIMTk1LjA0QzE0MC4xNiA5OTIgOTYgOTQ2LjYyNCA5NiA4OTEuMDcyVjEzMi45MjhDOTYgNzcuMzc2IDE0MC4xNiAzMiAxOTUuMDQgMzJoNjMzLjkyQzg4My44NCAzMiA5MjggNzcuMzc2IDkyOCAxMzIuOTI4djU2NC4zMmEzMiAzMiAwIDEgMS02NCAwdi01NjQuMzJDODY0IDExMi4zMiA4NDguMDk2IDk2IDgyOC45NiA5NkgxOTUuMDRDMTc1LjkwNCA5NiAxNjAgMTEyLjMyIDE2MCAxMzIuOTI4djc1OC4xNDRDMTYwIDkxMS42OCAxNzUuOTA0IDkyOCAxOTUuMDQgOTI4aDQ2OC4wOTZsMTQ0LjgzMi0xMjUuNzZ6Ii8+PHBhdGggZmlsbD0iIzRBOTE5QiIgZD0iTTcwNCA5NTkuMTM2YTMyIDMyIDAgMSAxLTY0IDB2LTE4Ni4yNEM2NDAgNzE3LjQwOCA2ODQuMTYgNjcyIDczOS4wNCA2NzJoMTU3LjYzMmEzMiAzMiAwIDAgMSAwIDY0SDczOS4wNGMtMTkuMTM2IDAtMzUuMDQgMTYuMzItMzUuMDQgMzYuOTI4djE4Ni4yNHoiLz48L3N2Zz4=" parent="1" vertex="1">
          <mxGeometry x="512.5" y="264" width="100" height="100" as="geometry" />
        </mxCell>
        <mxCell id="mOebbfBG10x5W4ijN7ml-16" value="&lt;font color=&quot;#808080&quot;&gt;原文&lt;/font&gt;" style="text;html=1;strokeColor=none;fillColor=none;align=center;verticalAlign=middle;whiteSpace=wrap;rounded=0;fontSize=19;fontColor=#FFFFFF;" parent="1" vertex="1">
          <mxGeometry x="88" y="375" width="91" height="30" as="geometry" />
        </mxCell>
        <mxCell id="mOebbfBG10x5W4ijN7ml-17" value="&lt;font color=&quot;#808080&quot;&gt;原文&lt;/font&gt;" style="text;html=1;strokeColor=none;fillColor=none;align=center;verticalAlign=middle;whiteSpace=wrap;rounded=0;fontSize=19;fontColor=#FFFFFF;" parent="1" vertex="1">
          <mxGeometry x="517" y="375" width="91" height="30" as="geometry" />
        </mxCell>
        <mxCell id="BxkpXKa9KFCufEpOCjpc-1" value="" style="shape=image;verticalLabelPosition=bottom;verticalAlign=top;imageAspect=0;aspect=fixed;image=data:image/svg+xml,PHN2ZyB4bWxuczp4bGluaz0iaHR0cDovL3d3dy53My5vcmcvMTk5OS94bGluayIgeG1sbnM9Imh0dHA6Ly93d3cudzMub3JnLzIwMDAvc3ZnIiBoZWlnaHQ9IjIwMCIgd2lkdGg9IjIwMCIgdmVyc2lvbj0iMS4xIiB2aWV3Qm94PSIwIDAgMTAyNCAxMDI0IiBjbGFzcz0iaWNvbiI+PHBhdGggZmlsbD0iIzUzNUU4MCIgZD0iTTQ0Ni42ODA0MDcgNTEzLjcwNDcyNmgxMzYuMDc4NzM5djUxMC4yOTUyNzRoLTEzNi4wNzg3Mzl6Ii8+PHBhdGggZmlsbD0iIzUzNUU4MCIgZD0iTTUzMi40MTAwMTMgNjY2Ljc5MzMwOGgxMTUuNjY2OTI4djEzNi4wNzg3NEg1MzIuNDEwMDEzek01MzIuNDEwMDEzIDg0My42OTU2N2gxNDkuNjg2NjEzdjEzNi4wNzg3NEg1MzIuNDEwMDEzek01MTEuOTk4MjAyIDU4NS4xNDYwNjVBMjkwLjUyODEwOSAyOTAuNTI4MTA5IDAgMCAxIDIxOS40Mjg5MTIgMjkyLjU3Njc3NSAyOTAuNTI4MTA5IDI5MC41MjgxMDkgMCAwIDEgNTExLjk5ODIwMiAwLjAwNzQ4NGEyOTAuNTI4MTA5IDI5MC41MjgxMDkgMCAwIDEgMjkyLjU2OTI5IDI5Mi41NjkyOTEgMjkwLjUyODEwOSAyOTAuNTI4MTA5IDAgMCAxLTI5Mi41NjkyOSAyOTIuNTY5Mjl6IG0wLTQ0OS4wNTk4NDFBMTUzLjc2ODk3NiAxNTMuNzY4OTc2IDAgMCAwIDM1NS41MDc2NTEgMjkyLjU3Njc3NWExNTMuNzY4OTc2IDE1My43Njg5NzYgMCAwIDAgMTU2LjQ5MDU1MSAxNTYuNDkwNTUgMTUzLjc2ODk3NiAxNTMuNzY4OTc2IDAgMCAwIDE1Ni40OTA1NS0xNTYuNDkwNTVBMTUzLjc2ODk3NiAxNTMuNzY4OTc2IDAgMCAwIDUxMS45OTgyMDIgMTM2LjA4NjIyNHoiLz48L3N2Zz4=" parent="1" vertex="1">
          <mxGeometry x="432" y="255" width="47" height="47" as="geometry" />
        </mxCell>
        <mxCell id="OxyKKiLQindW6FY5Xs8T-1" value="&lt;font color=&quot;#4a919b&quot; style=&quot;font-size: 14px;&quot;&gt;&lt;b&gt;公钥&lt;/b&gt;&lt;/font&gt;" style="text;html=1;strokeColor=none;fillColor=none;align=center;verticalAlign=middle;whiteSpace=wrap;rounded=0;fontSize=19;fontColor=#FFFFFF;" vertex="1" parent="1">
          <mxGeometry x="195" y="225" width="91" height="30" as="geometry" />
        </mxCell>
        <mxCell id="OxyKKiLQindW6FY5Xs8T-2" value="&lt;font color=&quot;#535e80&quot; style=&quot;font-size: 14px;&quot;&gt;&lt;b style=&quot;&quot;&gt;私钥&lt;/b&gt;&lt;/font&gt;" style="text;html=1;strokeColor=none;fillColor=none;align=center;verticalAlign=middle;whiteSpace=wrap;rounded=0;fontSize=19;fontColor=#FFFFFF;" vertex="1" parent="1">
          <mxGeometry x="410" y="225" width="91" height="30" as="geometry" />
        </mxCell>
      </root>
    </mxGraphModel>
  </diagram>
</mxfile>
